<?xml version="1.0" encoding="utf-8"?>
<svg version="1.1" xmlns:xlink="http://www.w3.org/1999/xlink" width="12px" height="12px" viewBox="147 37  12 12" xmlns="http://www.w3.org/2000/svg">
  <path d="M 153 37  C 156.36 37  159 39.64  159 43  C 159 46.36  156.36 49  153 49  C 149.64 49  147 46.36  147 43  C 147 39.64  149.64 37  153 37  Z " fill-rule="nonzero" fill="#f0f0f0" stroke="none" />
  <path d="M 153 37.5  C 156.08 37.5  158.5 39.92  158.5 43  C 158.5 46.08  156.08 48.5  153 48.5  C 149.92 48.5  147.5 46.08  147.5 43  C 147.5 39.92  149.92 37.5  153 37.5  Z " stroke-width="1" stroke="#797979" fill="none" />
  <path d="M 153 46  C 151.32 46  150 44.68  150 43  C 150 41.32  151.32 40  153 40  C 154.68 40  156 41.32  156 43  C 156 44.68  154.68 46  153 46  " fill-rule="nonzero" fill="#797979" stroke="none" />
</svg>