<?xml version="1.0" encoding="utf-8"?>
<svg version="1.1" xmlns:xlink="http://www.w3.org/1999/xlink" width="12px" height="12px" viewBox="220 472  12 12" xmlns="http://www.w3.org/2000/svg">
  <path d="M 226 472  C 229.36 472  232 474.64  232 478  C 232 481.36  229.36 484  226 484  C 222.64 484  220 481.36  220 478  C 220 474.64  222.64 472  226 472  Z " fill-rule="nonzero" fill="#f0f0f0" stroke="none" />
  <path d="M 226 472.5  C 229.08 472.5  231.5 474.92  231.5 478  C 231.5 481.08  229.08 483.5  226 483.5  C 222.92 483.5  220.5 481.08  220.5 478  C 220.5 474.92  222.92 472.5  226 472.5  Z " stroke-width="1" stroke="#797979" fill="none" />
  <path d="M 226 481  C 224.32 481  223 479.68  223 478  C 223 476.32  224.32 475  226 475  C 227.68 475  229 476.32  229 478  C 229 479.68  227.68 481  226 481  " fill-rule="nonzero" fill="#797979" stroke="none" />
</svg>