<?xml version="1.0" encoding="utf-8"?>
<svg version="1.1" xmlns:xlink="http://www.w3.org/1999/xlink" width="18px" height="13px" xmlns="http://www.w3.org/2000/svg">
  <g transform="matrix(1 0 0 1 -586 -420 )">
    <path d="M 8.39461883408072 9.75  L 8.95964125560538 9.75  L 10.1300448430493 8.67897727272727  L 8.59641255605381 7.27556818181818  L 7.42600896860987 8.34659090909091  L 7.42600896860987 8.86363636363637  L 8.39461883408072 8.86363636363637  L 8.39461883408072 9.75  Z M 13.3890134529148 3.40696022727273  C 13.5033632286996 3.30232007575757  13.5067264573991 3.20075757575757  13.3991031390135 3.10227272727273  C 13.2914798206278 3.00378787878788  13.1804932735426 3.00686553030303  13.0661434977578 3.11150568181818  L 9.5347533632287 6.34303977272727  C 9.42040358744395 6.44767992424242  9.41704035874439 6.54924242424242  9.52466367713004 6.64772727272727  C 9.6322869955157 6.74621212121212  9.7432735426009 6.74313446969697  9.85762331838565 6.63849431818182  L 13.3890134529148 3.40696022727273  Z M 14.0044843049327 8.31889204545454  C 14.1390134529148 8.36813446969697  14.2062780269058 8.45738636363637  14.2062780269058 8.58664772727273  L 14.2062780269058 10.3409090909091  C 14.2062780269058 11.0733901515152  13.9220852017937 11.6996922348485  13.3536995515695 12.2198153409091  C 12.7853139013453 12.7399384469697  12.1008968609865 13  11.3004484304933 13  L 2.90582959641256 13  C 2.10538116591928 13  1.42096412556054 12.7399384469697  0.852578475336323 12.2198153409091  C 0.284192825112108 11.6996922348485  0 11.0733901515152  0 10.3409090909091  L 0 2.65909090909091  C 0 1.92660984848485  0.284192825112108 1.30030776515151  0.852578475336323 0.78018465909091  C 1.42096412556054 0.260061553030302  2.10538116591928 0  2.90582959641256 0  L 11.3004484304933 0  C 11.7242152466368 0  12.1177130044843 0.0769412878787872  12.4809417040359 0.230823863636363  C 12.5818385650224 0.273910984848484  12.6423766816143 0.344696969696969  12.6625560538117 0.443181818181818  C 12.682735426009 0.547821969696969  12.652466367713 0.637073863636363  12.5717488789238 0.7109375  L 12.0773542600897 1.16335227272727  C 11.9831838565022 1.24952651515151  11.8755605381166 1.27414772727273  11.7544843049327 1.23721590909091  C 11.5997757847534 1.20028409090909  11.4484304932735 1.18181818181818  11.3004484304933 1.18181818181818  L 2.90582959641256 1.18181818181818  C 2.46188340807175 1.18181818181818  2.08183856502242 1.3264678030303  1.76569506726457 1.61576704545455  C 1.44955156950673 1.90506628787879  1.2914798206278 2.25284090909091  1.2914798206278 2.65909090909091  L 1.2914798206278 10.3409090909091  C 1.2914798206278 10.7471590909091  1.44955156950673 11.0949337121212  1.76569506726457 11.3842329545455  C 2.08183856502242 11.6735321969697  2.46188340807175 11.8181818181818  2.90582959641256 11.8181818181818  L 11.3004484304933 11.8181818181818  C 11.7443946188341 11.8181818181818  12.1244394618834 11.6735321969697  12.4405829596413 11.3842329545455  C 12.7567264573991 11.0949337121212  12.914798206278 10.7471590909091  12.914798206278 10.3409090909091  L 12.914798206278 9.17755681818182  C 12.914798206278 9.09753787878788  12.945067264574 9.02982954545454  13.0056053811659 8.97443181818182  L 13.6513452914798 8.38352272727273  C 13.7522421524664 8.29119318181818  13.8699551569507 8.26964962121212  14.0044843049327 8.31889204545454  Z M 6.45739910313901 7.97727272727273  L 13.237668161435 1.77272727272727  L 16.1434977578475 4.43181818181818  L 9.36322869955157 10.6363636363636  L 6.45739910313901 10.6363636363636  L 6.45739910313901 7.97727272727273  Z M 18 2.36363636363636  C 18 2.60984848484848  17.9058295964126 2.81912878787879  17.7174887892377 2.99147727272727  L 16.7892376681614 3.84090909090909  L 13.8834080717489 1.18181818181818  L 14.8116591928251 0.332386363636363  C 15 0.160037878787878  15.2286995515695 0.073863636363637  15.4977578475336 0.073863636363637  C 15.7668161434978 0.073863636363637  15.9955156950673 0.160037878787878  16.1838565022422 0.332386363636363  L 17.7174887892377 1.73579545454545  C 17.9058295964126 1.90814393939394  18 2.11742424242424  18 2.36363636363636  Z " fill-rule="nonzero" fill="#3a8ee6" stroke="none" transform="matrix(1 0 0 1 586 420 )" />
  </g>
</svg>