<?xml version="1.0" encoding="utf-8"?>
<svg version="1.1" xmlns:xlink="http://www.w3.org/1999/xlink" width="8px" height="8px" xmlns="http://www.w3.org/2000/svg">
  <g transform="matrix(1 0 0 1 -293 -314 )">
    <path d="M 0.0732835156250076 7.57311164062498  L 3.64639515624999 4  L 0.0732835156250076 0.426888351562502  C -0.0243445078124978 0.329260335937488  -0.0243445078124978 0.170974031249989  0.0732835156250076 0.0733460156250203  C 0.17091153906249 -0.0242820078125078  0.329197835937498 -0.0242820078125078  0.426825859375003 0.0733460156250203  L 3.99993750000001 3.64645765625  L 7.57304914062499 0.0733460156250203  C 7.6706771875 -0.0242820078125078  7.8289634453125 -0.0242820078125078  7.9265914921875 0.0733460156250203  C 8.02421949218749 0.170974031249989  8.02421949218749 0.329260335937488  7.9265914921875 0.426888351562502  L 4.35347984375001 4  L 7.9265914921875 7.57311164062498  C 8.02421949218749 7.67073968750001  8.02421949218749 7.82902594531251  7.9265914921875 7.92665399218749  C 7.8289634453125 8.02428199218748  7.6706771875 8.02428199218748  7.57304914062499 7.92665399218749  L 3.99993750000001 4.35354234375  L 0.426825859375003 7.92665399218749  C 0.329197835937498 8.02428199218748  0.17091153906249 8.02428199218748  0.0732835156250076 7.92665399218749  C -0.0243445078124978 7.82902594531251  -0.0243445078124978 7.67073968750001  0.0732835156250076 7.57311164062498  Z " fill-rule="nonzero" fill="#ffffff" stroke="none" transform="matrix(1 0 0 1 293 314 )" />
  </g>
</svg>