<?xml version="1.0" encoding="utf-8"?>
<svg version="1.1" xmlns:xlink="http://www.w3.org/1999/xlink" width="15px" height="15px" xmlns="http://www.w3.org/2000/svg">
  <g transform="matrix(1 0 0 1 -791 -2160 )">
    <path d="M 798.5 2160  C 802.7 2160  806 2163.3  806 2167.5  C 806 2171.7  802.7 2175  798.5 2175  C 794.3 2175  791 2171.7  791 2167.5  C 791 2163.3  794.3 2160  798.5 2160  Z " fill-rule="nonzero" fill="#ffffff" stroke="none" />
    <path d="M 798.5 2160.5  C 802.42 2160.5  805.5 2163.58  805.5 2167.5  C 805.5 2171.42  802.42 2174.5  798.5 2174.5  C 794.58 2174.5  791.5 2171.42  791.5 2167.5  C 791.5 2163.58  794.58 2160.5  798.5 2160.5  Z " stroke-width="1" stroke="#797979" fill="none" />
  </g>
</svg>