<?xml version="1.0" encoding="utf-8"?>
<svg version="1.1" xmlns:xlink="http://www.w3.org/1999/xlink" width="12px" height="12px" viewBox="220 37  12 12" xmlns="http://www.w3.org/2000/svg">
  <path d="M 226 37  C 229.36 37  232 39.64  232 43  C 232 46.36  229.36 49  226 49  C 222.64 49  220 46.36  220 43  C 220 39.64  222.64 37  226 37  Z " fill-rule="nonzero" fill="#f0f0f0" stroke="none" />
  <path d="M 226 37.5  C 229.08 37.5  231.5 39.92  231.5 43  C 231.5 46.08  229.08 48.5  226 48.5  C 222.92 48.5  220.5 46.08  220.5 43  C 220.5 39.92  222.92 37.5  226 37.5  Z " stroke-width="1" stroke="#797979" fill="none" />
  <path d="M 226 46  C 224.32 46  223 44.68  223 43  C 223 41.32  224.32 40  226 40  C 227.68 40  229 41.32  229 43  C 229 44.68  227.68 46  226 46  " fill-rule="nonzero" fill="#797979" stroke="none" />
</svg>