<?xml version="1.0" encoding="utf-8"?>
<svg version="1.1" xmlns:xlink="http://www.w3.org/1999/xlink" width="12px" height="12px" viewBox="367 37  12 12" xmlns="http://www.w3.org/2000/svg">
  <path d="M 373 37  C 376.36 37  379 39.64  379 43  C 379 46.36  376.36 49  373 49  C 369.64 49  367 46.36  367 43  C 367 39.64  369.64 37  373 37  Z " fill-rule="nonzero" fill="#ffffff" stroke="none" />
  <path d="M 373 37.5  C 376.08 37.5  378.5 39.92  378.5 43  C 378.5 46.08  376.08 48.5  373 48.5  C 369.92 48.5  367.5 46.08  367.5 43  C 367.5 39.92  369.92 37.5  373 37.5  Z " stroke-width="1" stroke="#797979" fill="none" />
  <path d="M 373 46  C 371.32 46  370 44.68  370 43  C 370 41.32  371.32 40  373 40  C 374.68 40  376 41.32  376 43  C 376 44.68  374.68 46  373 46  " fill-rule="nonzero" fill="#797979" stroke="none" />
</svg>